<svg xmlns="http://www.w3.org/2000/svg" width="348.7" height="348.7"><path d="M174.4 0C78 0 0 78 0 174.4c0 96.3 78 174.3 174.4 174.3s174.3-78 174.3-174.3S270.7 0 174.4 0zm75.3 126.5c25.4 0 46.7 17.5 52.4 41.2l-23.6 2c-4.4-11.6-15.6-20-28.7-20-3.6 0-7 .8-10.3 2l-10-21.2c6.3-2.6 13.2-4 20.3-4zM70 226l12.6-19.2c12.7 7.6 25.5 6.4 38.3-3.7l16 16.5c-19.3 18.3-44.7 20-67 6.5zm60-48l-22.2 9.7-53 23.2c-5.6-8.6-9-18.8-9-29.8 0-29.6 24-53.6 53.6-53.6 25.3 0 46.5 17.5 52 41L130 178zm58.3 54l-19.6-8.4c-7.4-3.2-10-7.7-10-17.3V105h19v98.5c0 1 .2 1.8 1.4 2.3l16.8 6.5-7.5 19.6zm31-7c-14.2-9.8-23.5-26-23.5-44.6 0-17 8-32.4 20.5-42.2l12.4 20c-6 5.6-9.5 13.5-9.5 22.2 0 9.8 4.6 18.6 11.8 24.2L219.3 225zm30.4 9.3c-5.8 0-11.5-1-16.7-2.6l9.3-21.6c2.4.7 5 1 7.4 1 16.4 0 29.8-13 30.6-29l23.3.6c-1.2 28.8-24.8 51.7-54 51.7z"/><path d="M99.4 150.6c-17 0-30.6 13.7-30.6 30.6v2.8l53.6-23c-5.6-6.4-13.8-10.4-23-10.4z"/></svg>